<svg width="36" height="36" viewBox="0 0 18 18" fill="none" xmlns="http://www.w3.org/2000/svg">
<rect width="18" height="18" rx="9" fill="#81B64C"/>
<path d="M5.90968 14.6408C5.53016 14.8938 5.07835 14.5685 5.20486 14.1348L6.14462 10.5745L3.2892 8.26129C2.90968 7.95406 3.21691 7.44804 3.56028 7.4119L7.24703 7.2131L8.56631 3.77936C8.6386 3.59864 8.81932 3.47214 9.01811 3.47214C9.19884 3.47214 9.37956 3.58057 9.45185 3.77936L10.7711 7.2131L14.4398 7.4119C14.9097 7.42997 15.0181 8.00828 14.7109 8.24322L11.8555 10.5745L12.7952 14.1348C12.9217 14.5866 12.3976 14.8396 12.0904 14.6408L9.00004 12.6529L5.90968 14.6408Z" fill="#45753C"/>
<path d="M5.90962 14.0783C5.5301 14.3313 5.07829 14.006 5.2048 13.5723L6.14456 10.012L3.28914 7.69879C2.90962 7.39156 3.21685 6.88554 3.56022 6.8494L7.24697 6.6506L8.56625 3.21686C8.63853 3.03614 8.81926 2.90964 9.01805 2.90964C9.19878 2.90964 9.3795 3.01807 9.45179 3.21686L10.7711 6.6506L14.4397 6.8494C14.9096 6.86747 15.0181 7.44578 14.7108 7.68072L11.8554 10.012L12.7952 13.5723C12.9217 14.0241 12.3976 14.2771 12.0903 14.0783L8.99998 12.0904L5.90962 14.0783Z" fill="white"/>
</svg>
