<svg width="36" height="36" viewBox="0 0 18 18" fill="none" xmlns="http://www.w3.org/2000/svg">
<rect width="18" height="18" rx="9" fill="#F7C631"/>
<path d="M7.30121 15.201H5.42169C5.24097 15.201 5.11446 15.0745 5.11446 14.8757V13.0504C5.11446 12.8697 5.24097 12.7432 5.42169 12.7432H7.31928C7.50001 12.7432 7.62651 12.8697 7.62651 13.0504V14.8757C7.62651 15.0745 7.50001 15.201 7.30121 15.201ZM13.3012 15.201H11.3313C11.1506 15.201 11.006 15.0384 11.006 14.8577V12.9601C11.006 12.8155 11.0783 12.6348 11.3313 12.6348H13.3012C13.4639 12.6348 13.6627 12.689 13.6627 12.9601V14.8577C13.6627 15.0023 13.4639 15.201 13.3012 15.201ZM7.24699 11.4059H5.51205C5.3494 11.4059 5.20482 11.3517 5.20482 11.0986V10.7372C5.20482 9.77936 5.74699 8.98418 6.10844 8.69503L6.61446 8.27936C6.83133 8.08057 7.06627 7.8637 7.26507 7.64683C7.42772 7.44804 7.51808 7.2131 7.51808 6.96009C7.51808 6.41792 7.0482 6.11069 6.50603 6.11069C6.1988 6.11069 5.6747 6.21912 5.20482 6.61671C5.06025 6.76129 4.93374 6.74322 4.73495 6.54442L3.74097 5.33358C3.61446 5.189 3.66868 5.04442 3.77711 4.93599C4.55422 4.15888 5.74699 3.81551 6.63254 3.81551C8.53013 3.81551 9.97591 5.04442 9.97591 6.77936C9.97591 8.02635 9.54217 8.47816 8.47591 9.54442L7.82531 10.177C7.64458 10.3757 7.55422 10.6288 7.55422 10.8818V11.0986C7.55422 11.2974 7.44579 11.4059 7.24699 11.4059ZM13.2108 11.2432H11.4217C11.2229 11.2432 11.0783 11.1348 11.0783 10.9179L10.9337 4.14081C10.9337 3.97816 11.006 3.81551 11.259 3.81551H13.3735C13.5723 3.81551 13.7169 3.94201 13.7169 4.14081L13.5181 10.9179C13.5181 11.0806 13.3735 11.2432 13.2108 11.2432Z" fill="#CF8D1B"/>
<path d="M7.57093 14.7606H5.69141C5.51068 14.7606 5.38418 14.6341 5.38418 14.4353V12.61C5.38418 12.4292 5.51068 12.3027 5.69141 12.3027H7.589C7.76972 12.3027 7.89623 12.4292 7.89623 12.61V14.4353C7.89623 14.6341 7.76972 14.7606 7.57093 14.7606ZM13.5709 14.7606H11.601C11.4203 14.7606 11.2757 14.5979 11.2757 14.4172V12.5196C11.2757 12.375 11.348 12.1943 11.601 12.1943H13.5709C13.7336 12.1943 13.9324 12.2485 13.9324 12.5196V14.4172C13.9324 14.5618 13.7336 14.7606 13.5709 14.7606ZM7.51671 10.9654H5.78177C5.61912 10.9654 5.47454 10.9112 5.47454 10.6581V10.2967C5.47454 9.33887 6.01671 8.54369 6.37815 8.25453L6.88418 7.83887C7.10105 7.64008 7.33599 7.42321 7.53478 7.20634C7.69743 7.00755 7.78779 6.77261 7.78779 6.5196C7.78779 5.97743 7.31791 5.6702 6.77574 5.6702C6.46852 5.6702 5.94442 5.77863 5.47454 6.17622C5.32996 6.3208 5.20345 6.30273 5.00466 6.10393L4.01068 4.89309C3.88418 4.74851 3.93839 4.60393 4.04683 4.4955C4.82394 3.71839 6.01671 3.37502 6.90225 3.37502C8.79984 3.37502 10.2456 4.60393 10.2456 6.33887C10.2456 7.58586 9.81189 8.03767 8.74562 9.10393L8.09502 9.73646C7.9143 9.93526 7.82394 10.1883 7.82394 10.4413V10.6581C7.82394 10.8569 7.7155 10.9654 7.51671 10.9654ZM13.4806 10.8027H11.6914C11.4926 10.8027 11.348 10.6943 11.348 10.4774L11.2035 3.70032C11.2035 3.53767 11.2757 3.37502 11.5288 3.37502H13.6432C13.842 3.37502 13.9866 3.50152 13.9866 3.70032L13.7878 10.4774C13.7878 10.6401 13.6432 10.8027 13.4806 10.8027Z" fill="white"/>
</svg>
