<svg width="36" height="36" viewBox="0 0 18 18" fill="none" xmlns="http://www.w3.org/2000/svg">
<rect width="18" height="18" rx="9" fill="#FFA459"/>
<path d="M9.59585 15.4128H7.718C7.53743 15.4128 7.41104 15.2864 7.41104 15.0878V13.2641C7.41104 13.0835 7.53743 12.9571 7.718 12.9571H9.61391C9.79447 12.9571 9.92087 13.0835 9.92087 13.2641V15.0878C9.92087 15.2864 9.79447 15.4128 9.59585 15.4128ZM9.54169 11.621H7.80828C7.64577 11.621 7.50132 11.5668 7.50132 11.314V10.9529C7.50132 9.99588 8.04301 9.2014 8.40414 8.9125L8.90971 8.4972C9.12639 8.29858 9.36112 8.08191 9.55974 7.86523C9.72225 7.66661 9.81253 7.43188 9.81253 7.17909C9.81253 6.6374 9.34307 6.33044 8.80138 6.33044C8.49442 6.33044 7.97078 6.43878 7.50132 6.83602C7.35687 6.98047 7.23047 6.96242 7.03185 6.7638L6.03876 5.55402C5.91236 5.40957 5.96653 5.26512 6.07487 5.15678C6.85129 4.38036 8.04301 4.03729 8.92777 4.03729C10.8237 4.03729 12.2682 5.26512 12.2682 6.99853C12.2682 8.24441 11.8348 8.69582 10.7695 9.76115L10.1195 10.3931C9.93892 10.5917 9.84864 10.8445 9.84864 11.0973V11.314C9.84864 11.5126 9.74031 11.621 9.54169 11.621Z" fill="#FA742C"/>
<path d="M9.59585 14.8503H7.718C7.53743 14.8503 7.41104 14.7239 7.41104 14.5253V12.7016C7.41104 12.521 7.53743 12.3946 7.718 12.3946H9.61391C9.79447 12.3946 9.92087 12.521 9.92087 12.7016V14.5253C9.92087 14.7239 9.79447 14.8503 9.59585 14.8503ZM9.54169 11.0585H7.80828C7.64577 11.0585 7.50132 11.0043 7.50132 10.7515V10.3904C7.50132 9.43338 8.04301 8.6389 8.40414 8.35L8.90971 7.9347C9.12639 7.73608 9.36112 7.51941 9.55974 7.30273C9.72225 7.10411 9.81253 6.86938 9.81253 6.61659C9.81253 6.0749 9.34307 5.76794 8.80138 5.76794C8.49442 5.76794 7.97078 5.87628 7.50132 6.27352C7.35687 6.41797 7.23047 6.39992 7.03185 6.2013L6.03876 4.99152C5.91236 4.84707 5.96653 4.70262 6.07487 4.59428C6.85129 3.81786 8.04301 3.47479 8.92777 3.47479C10.8237 3.47479 12.2682 4.70262 12.2682 6.43603C12.2682 7.68191 11.8348 8.13332 10.7695 9.19865L10.1195 9.83062C9.93892 10.0292 9.84864 10.282 9.84864 10.5348V10.7515C9.84864 10.9501 9.74031 11.0585 9.54169 11.0585Z" fill="white"/>
</svg>
