<svg width="36" height="36" viewBox="0 0 18 18" fill="none" xmlns="http://www.w3.org/2000/svg">
<rect width="18" height="18" rx="9" fill="#95B776"/>
<path d="M15.1084 6.86971L7.78917 14.189C7.62652 14.3516 7.37351 14.3516 7.22893 14.189L2.89158 9.85164C2.72893 9.70706 2.72893 9.43597 2.89158 9.27332L4.26507 7.89983C4.40965 7.75525 4.66266 7.75525 4.82532 7.89983L7.51809 10.5745L13.1747 4.93597C13.3374 4.79139 13.5904 4.79139 13.735 4.93597L15.1084 6.30947C15.2711 6.45405 15.2711 6.70706 15.1084 6.86971Z" fill="#37573E"/>
<path d="M15.1084 6.30721L7.78917 13.6265C7.62652 13.7891 7.37351 13.7891 7.22893 13.6265L2.89158 9.28914C2.72893 9.14456 2.72893 8.87347 2.89158 8.71082L4.26507 7.33733C4.40965 7.19275 4.66266 7.19275 4.82532 7.33733L7.51809 10.012L13.1747 4.37347C13.3374 4.22889 13.5904 4.22889 13.735 4.37347L15.1084 5.74697C15.2711 5.89155 15.2711 6.14456 15.1084 6.30721Z" fill="white"/>
</svg>
