<svg width="36" height="36" viewBox="0 0 18 18" fill="none" xmlns="http://www.w3.org/2000/svg">
<rect width="18" height="18" rx="9" fill="#81B64C"/>
<path d="M5.49396 13.7191H4.30119C4.03011 13.7191 3.79517 13.5023 3.79517 13.2312V8.65889C3.79517 8.38781 4.03011 8.15287 4.30119 8.15287H5.49396C5.76505 8.15287 5.98191 8.38781 5.98191 8.65889V13.2312C5.98191 13.5023 5.76505 13.7191 5.49396 13.7191ZM11.006 14.0806C10.4096 14.0806 9.97589 14.0083 9.3795 13.9179C8.83734 13.8456 8.45782 13.7191 7.93372 13.5926C7.49999 13.5023 7.06625 13.43 6.61444 13.4119V8.47817C7.69878 8.06251 9.09035 7.10468 9.70481 5.22516C9.88553 4.71913 9.77709 3.52636 10.6084 3.7613C11.8916 4.0866 11.5843 5.62275 11.3855 6.18299C11.2048 6.70709 10.8253 7.64684 11.2048 7.89986C11.4578 8.04444 13.0843 7.89986 13.2831 7.91793C13.8434 7.97215 14.0602 8.24323 14.1325 8.80347C14.1687 9.27335 13.9518 9.50829 13.9518 9.6348C13.9518 9.77937 14.1867 10.0505 14.1867 10.4661C14.1867 10.8818 13.8434 11.2071 13.7891 11.4059C13.7349 11.6047 13.8976 11.8938 13.7711 12.2914C13.6265 12.6709 13.3916 12.689 13.265 12.9782C13.2289 13.0685 13.2108 13.177 13.1928 13.2673C13.0662 13.7914 12.7048 13.9721 12.1807 14.0625C11.6928 14.1348 11.494 14.0806 11.006 14.0806Z" fill="#45753C"/>
<path d="M5.49396 13.1566H4.30119C4.03011 13.1566 3.79517 12.9398 3.79517 12.6687V8.09639C3.79517 7.82531 4.03011 7.59037 4.30119 7.59037H5.49396C5.76505 7.59037 5.98191 7.82531 5.98191 8.09639V12.6687C5.98191 12.9398 5.76505 13.1566 5.49396 13.1566ZM11.006 13.5181C10.4096 13.5181 9.97589 13.4458 9.3795 13.3554C8.83734 13.2831 8.45782 13.1566 7.93372 13.0301C7.49999 12.9398 7.06625 12.8675 6.61444 12.8494V7.91567C7.69878 7.50001 9.09035 6.54218 9.70481 4.66266C9.88553 4.15663 9.77709 2.96386 10.6084 3.1988C11.8916 3.5241 11.5843 5.06025 11.3855 5.62049C11.2048 6.14459 10.8253 7.08434 11.2048 7.33736C11.4578 7.48194 13.0843 7.33736 13.2831 7.35543C13.8434 7.40965 14.0602 7.68073 14.1325 8.24097C14.1687 8.71085 13.9518 8.94579 13.9518 9.0723C13.9518 9.21687 14.1867 9.48796 14.1867 9.90362C14.1867 10.3193 13.8434 10.6446 13.7891 10.8434C13.7349 11.0422 13.8976 11.3313 13.7711 11.7289C13.6265 12.1084 13.3916 12.1265 13.265 12.4157C13.2289 12.506 13.2108 12.6145 13.1928 12.7048C13.0662 13.2289 12.7048 13.4096 12.1807 13.5C11.6928 13.5723 11.494 13.5181 11.006 13.5181Z" fill="white"/>
</svg>
