<svg width="36" height="36" viewBox="0 0 18 18" fill="none" xmlns="http://www.w3.org/2000/svg">
<rect width="18" height="18" rx="9" fill="#FA412D"/>
<path d="M10.0663 6.70707C10.0301 5.80346 9.83133 5.31551 9.27108 4.57454C9.9759 4.05045 10.9518 3.81551 11.6928 3.81551C13.5904 3.81551 15.0361 5.04442 15.0361 6.77936C15.0361 8.02635 14.6024 8.47816 13.5361 9.54442L12.8855 10.177C12.7048 10.3757 12.6145 10.6288 12.6145 10.8818V11.0986C12.6145 11.2974 12.506 11.4059 12.3072 11.4059H10.5723C10.4096 11.4059 10.2651 11.3517 10.2651 11.0986V10.7372C10.2651 9.77936 10.8072 8.98418 11.1687 8.69503L11.6747 8.27936C11.8916 8.08057 12.1265 7.8637 12.3253 7.64683C12.488 7.44804 12.5783 7.2131 12.5783 6.96009C12.5783 6.41792 12.1084 6.11069 11.5663 6.11069C11.259 6.11069 10.7349 6.21912 10.2651 6.61671C10.2108 6.67093 10.1205 6.70707 10.0663 6.70707ZM6.75904 15.201H4.87952C4.69879 15.201 4.57229 15.0745 4.57229 14.8757V13.0504C4.57229 12.8697 4.69879 12.7432 4.87952 12.7432H6.77711C6.95783 12.7432 7.08434 12.8697 7.08434 13.0504V14.8757C7.08434 15.0745 6.95783 15.201 6.75904 15.201ZM6.70482 11.4059H4.96988C4.80723 11.4059 4.66265 11.3517 4.66265 11.0986V10.7372C4.66265 9.77936 5.20482 8.98418 5.56626 8.69503L6.07229 8.27936C6.28916 8.08057 6.5241 7.8637 6.72289 7.64683C6.88554 7.44804 6.9759 7.2131 6.9759 6.96009C6.9759 6.41792 6.50602 6.11069 5.96385 6.11069C5.65663 6.11069 5.13253 6.21912 4.66265 6.61671C4.51807 6.76129 4.39157 6.74322 4.19277 6.54442L3.19879 5.33358C3.07229 5.189 3.12651 5.04442 3.23494 4.93599C4.01205 4.15888 5.20482 3.81551 6.09036 3.81551C7.98795 3.81551 9.43373 5.04442 9.43373 6.77936C9.43373 8.02635 9 8.47816 7.93373 9.54442L7.28313 10.177C7.10241 10.3757 7.01205 10.6288 7.01205 10.8818V11.0986C7.01205 11.2974 6.90361 11.4059 6.70482 11.4059ZM12.3614 15.201H10.4819C10.3012 15.201 10.1747 15.0745 10.1747 14.8757V13.0504C10.1747 12.8697 10.3012 12.7432 10.4819 12.7432H12.3795C12.5602 12.7432 12.6867 12.8697 12.6867 13.0504V14.8757C12.6867 15.0745 12.5602 15.201 12.3614 15.201Z" fill="#AD1F24"/>
<path d="M10.0663 6.14457C10.0301 5.24096 9.83133 4.75301 9.27108 4.01204C9.9759 3.48795 10.9518 3.25301 11.6928 3.25301C13.5904 3.25301 15.0361 4.48192 15.0361 6.21686C15.0361 7.46385 14.6024 7.91566 13.5361 8.98192L12.8855 9.61445C12.7048 9.81325 12.6145 10.0663 12.6145 10.3193V10.5361C12.6145 10.7349 12.506 10.8434 12.3072 10.8434H10.5723C10.4096 10.8434 10.2651 10.7892 10.2651 10.5361V10.1747C10.2651 9.21686 10.8072 8.42168 11.1687 8.13253L11.6747 7.71686C11.8916 7.51807 12.1265 7.3012 12.3253 7.08433C12.488 6.88554 12.5783 6.6506 12.5783 6.39759C12.5783 5.85542 12.1084 5.54819 11.5663 5.54819C11.259 5.54819 10.7349 5.65662 10.2651 6.05421C10.2108 6.10843 10.1205 6.14457 10.0663 6.14457ZM6.75904 14.6385H4.87952C4.69879 14.6385 4.57229 14.512 4.57229 14.3132V12.4879C4.57229 12.3072 4.69879 12.1807 4.87952 12.1807H6.77711C6.95783 12.1807 7.08434 12.3072 7.08434 12.4879V14.3132C7.08434 14.512 6.95783 14.6385 6.75904 14.6385ZM6.70482 10.8434H4.96988C4.80723 10.8434 4.66265 10.7892 4.66265 10.5361V10.1747C4.66265 9.21686 5.20482 8.42168 5.56626 8.13253L6.07229 7.71686C6.28916 7.51807 6.5241 7.3012 6.72289 7.08433C6.88554 6.88554 6.9759 6.6506 6.9759 6.39759C6.9759 5.85542 6.50602 5.54819 5.96385 5.54819C5.65663 5.54819 5.13253 5.65662 4.66265 6.05421C4.51807 6.19879 4.39157 6.18072 4.19277 5.98192L3.19879 4.77108C3.07229 4.6265 3.12651 4.48192 3.23494 4.37349C4.01205 3.59638 5.20482 3.25301 6.09036 3.25301C7.98795 3.25301 9.43373 4.48192 9.43373 6.21686C9.43373 7.46385 9 7.91566 7.93373 8.98192L7.28313 9.61445C7.10241 9.81325 7.01205 10.0663 7.01205 10.3193V10.5361C7.01205 10.7349 6.90361 10.8434 6.70482 10.8434ZM12.3614 14.6385H10.4819C10.3012 14.6385 10.1747 14.512 10.1747 14.3132V12.4879C10.1747 12.3072 10.3012 12.1807 10.4819 12.1807H12.3795C12.5602 12.1807 12.6867 12.3072 12.6867 12.4879V14.3132C12.6867 14.512 12.5602 14.6385 12.3614 14.6385Z" fill="white"/>
</svg>
